# xmcd
#
# Track frame offsets: 
#        183
#        15618
#        28180
#        40538
#        51355
#        65985
#        80038
#        94250
#        106573
#        121898
#        142583
#        155633
#        170325
#        184060
#        201168
#        214503
#        228475
#        240605
#        254878
#        270480
#
# Disc length: 3762 seconds
#
# Revision: 4
# Processed by: cddbd v1.5.2PL0 Copyright (c) Steve Scherf et al.
# Submitted via: ExactAudioCopy v0.99pb3
#
DISCID=160eb014,1d0eb114
DTITLE=Nat King Cole - Mona Lisa
DYEAR=1900
DGENRE=Jazz
TTITLE0=Mona Lisa
TTITLE1=Ramblin´ Rose
TTITLE2=Let There Be Love
TTITLE3=Those Lazy-Hazy-Crazy Days Of Summer
TTITLE4=Stardust
TTITLE5=Dear Lonely Hearts
TTITLE6=When I Fall In Love With You
TTITLE7=Love Letters
TTITLE8=Too Young
TTITLE9=Sweet Lorraine
TTITLE10=Nature Boy
TTITLE11=Ain´t Misbehavin´
TTITLE12=Love Is The Thing
TTITLE13=The Very Thought Of You
TTITLE14=Stay As Sweet As You Are
TTITLE15=It´s All In The Game
TTITLE16=Ballerina
TTITLE17=On The Street Where You Live
TTITLE18=Unforgettable
TTITLE19=Straighten Up And Fly Right
EXTD=
EXTT0=
EXTT1=Yesterday: 29.04.94 , 26.05.00
EXTT2=
EXTT3=Yesterday: 14.10.94 , 24.07.98 , 12.05.00
EXTT4=
EXTT5=Yesterday: 31.03.1994
EXTT6=Yesterday: 12.06.98 , 27.04.01
EXTT7=
EXTT8=
EXTT9=
EXTT10=
EXTT11=
EXTT12=
EXTT13=
EXTT14=
EXTT15=
EXTT16=
EXTT17=
EXTT18=
EXTT19=
PLAYORDER=
